<?xml version="1.0" standalone="no"?>
<!DOCTYPE svg PUBLIC "-//W3C//DTD SVG 20010904//EN"
 "http://www.w3.org/TR/2001/REC-SVG-20010904/DTD/svg10.dtd">
<svg version="1.0" xmlns="http://www.w3.org/2000/svg"
 width="689.000000pt" height="562.000000pt" viewBox="0 0 689.000000 562.000000"
 preserveAspectRatio="xMidYMid meet">

<g transform="translate(0.000000,562.000000) scale(0.100000,-0.100000)"
fill="#000000" stroke="none">
<path d="M3916 5611 c-3 -4 -19 -11 -36 -14 -21 -5 -31 -14 -36 -32 -7 -28
-31 -45 -63 -45 -42 0 -70 -22 -76 -59 -12 -76 -28 -93 -120 -140 -165 -84
-190 -134 -115 -230 55 -70 117 -114 153 -108 45 6 51 -11 43 -136 -7 -128 4
-165 62 -204 45 -30 143 -49 417 -79 l41 -5 -28 -212 c-15 -117 -28 -230 -29
-252 -2 -22 -12 -59 -23 -82 -18 -40 -16 -75 4 -43 6 10 13 3 25 -27 16 -39
101 -120 113 -108 3 3 -10 26 -28 52 -21 29 -36 65 -41 96 -8 45 -5 57 30 131
21 45 56 127 77 183 22 57 42 103 46 103 4 0 74 -42 155 -94 196 -124 223
-141 255 -165 14 -12 34 -21 45 -21 17 1 17 1 0 14 -16 12 -13 15 25 24 43 12
139 84 126 97 -3 3 -29 -5 -57 -19 -65 -33 -172 -38 -164 -8 3 14 -39 60 -164
180 l-168 162 0 77 0 78 -47 23 c-25 13 -86 32 -135 42 l-88 18 178 4 178 3
94 168 c52 93 89 167 82 165 -6 -3 -51 -74 -99 -159 l-86 -154 -181 -3 c-109
-1 -181 -6 -181 -12 0 -19 -96 -11 -113 8 -22 24 -21 31 1 27 9 -2 36 -6 60
-8 40 -5 42 -4 42 22 0 25 -5 27 -81 44 -90 21 -112 37 -131 98 -12 41 -11 45
30 121 23 43 42 87 42 98 0 25 -46 129 -67 152 -13 15 -14 20 -2 34 7 9 20 37
29 62 20 60 39 71 85 49 39 -19 81 -22 89 -8 9 13 -52 71 -91 87 -37 16 -69
18 -77 5z"/>
<path d="M4360 4275 c0 -4 6 -18 14 -33 8 -15 22 -54 32 -87 16 -54 18 -127
23 -742 l6 -682 133 78 c132 78 134 78 235 90 188 21 578 75 587 81 12 8 -27
152 -74 274 -158 408 -459 753 -848 974 -90 50 -108 58 -108 47z"/>
<path d="M1921 3575 c-118 -186 -207 -411 -258 -650 -25 -121 -27 -147 -27
-365 0 -217 2 -245 27 -362 48 -224 116 -409 217 -584 39 -67 48 -92 43 -115
-3 -16 -1 -35 5 -42 6 -7 14 -33 18 -57 6 -37 8 -40 15 -22 7 18 16 22 53 22
26 0 69 10 101 24 l55 25 0 -33 c0 -38 19 -69 40 -64 10 2 14 -3 12 -14 -4
-22 14 -24 22 -2 10 25 7 84 -5 107 -7 12 -35 45 -64 74 -63 62 -109 78 -166
59 l-39 -14 -2 1042 -3 1041 -44 -70z"/>
<path d="M6073 3008 c-57 -9 -63 -12 -63 -34 0 -21 30 -237 33 -241 1 0 33 4
71 10 55 10 73 17 88 38 18 24 19 33 9 110 -6 46 -14 94 -16 107 -6 25 -18 26
-122 10z"/>
<path d="M5385 2909 c-258 -37 -512 -75 -564 -83 -93 -15 -127 -26 -78 -26 30
0 87 -45 87 -68 -1 -22 -23 -51 -56 -73 -29 -18 -29 -18 39 -33 40 -9 33 -33
-18 -58 l-44 -22 -143 38 c-79 20 -151 39 -160 42 -17 5 -18 -28 -18 -594 l0
-599 63 -5 c79 -7 132 -34 188 -96 49 -55 79 -126 79 -189 0 -24 4 -43 9 -43
5 0 64 58 132 128 l124 128 -22 -266 c-13 -146 -21 -272 -19 -281 3 -13 -16
-23 -90 -45 -52 -15 -93 -29 -91 -30 1 -2 43 -8 92 -13 50 -6 110 -13 134 -17
l43 -6 -4 39 c-4 27 5 63 29 128 52 140 73 230 73 317 0 66 3 80 18 85 9 3 61
23 116 44 54 22 101 39 105 39 4 0 22 -60 40 -132 19 -73 35 -134 35 -135 1
-1 140 20 309 46 l309 48 43 -86 44 -86 0 55 c1 30 -2 92 -5 137 l-7 81 -38
-13 c-20 -7 -40 -11 -42 -8 -12 11 -228 42 -300 43 -63 0 -87 -5 -126 -25
l-49 -24 25 92 c19 72 25 123 28 232 2 77 9 183 15 235 6 52 10 143 9 202 l-1
106 46 58 c126 154 155 286 91 419 -35 75 -41 81 -58 67 -12 -10 -13 -21 -5
-55 27 -120 -29 -226 -184 -350 -51 -41 -104 -86 -117 -100 -19 -21 -28 -24
-42 -16 -11 5 -19 18 -19 28 0 10 -7 24 -15 31 -21 17 -19 59 6 125 19 52 22
55 55 55 20 0 44 -5 55 -10 18 -10 18 -13 4 -47 -13 -30 -13 -34 -1 -24 12 10
15 7 18 -16 l3 -28 29 38 c26 34 28 40 16 63 -15 27 -66 62 -107 73 l-27 7 0
106 -1 106 72 11 c39 6 97 14 128 17 42 5 55 10 51 21 -4 10 1 12 18 7 15 -4
35 3 61 20 50 35 81 34 40 0 l-30 -25 60 7 c33 3 61 7 62 8 3 2 -25 213 -32
244 -3 12 -9 21 -13 21 -4 -1 -218 -32 -477 -70z m-131 -300 c20 -9 29 -9 41
1 27 23 16 -6 -14 -34 -29 -28 -51 -28 -51 -1 0 7 -7 16 -16 19 -8 3 -12 10
-9 16 8 13 18 13 49 -1z m69 -851 l-3 -133 -121 -99 c-67 -54 -117 -92 -113
-85 5 8 30 46 56 84 48 73 146 262 169 328 7 20 13 37 14 37 0 0 -1 -60 -2
-132z"/>
<path d="M4366 2685 c-41 -25 -39 -30 17 -40 36 -7 37 -7 37 23 0 42 -9 44
-54 17z"/>
<path d="M1343 2476 c-16 -57 -39 -67 -58 -23 -13 28 -14 -6 -15 -304 0 -185
-3 -364 -6 -398 l-7 -61 42 0 c33 0 47 6 66 28 18 20 24 23 25 11 0 -15 4 -15
45 0 34 12 47 13 56 4 18 -18 -51 -80 -109 -96 -26 -8 -46 -18 -45 -23 2 -5
-12 -14 -30 -20 l-32 -11 -3 -116 -3 -117 131 0 130 0 0 588 0 587 -20 -42
c-36 -80 -100 -81 -136 -4 l-20 42 -11 -45z"/>
<path d="M899 2401 c-34 -35 -39 -84 -12 -134 l17 -32 7 33 c16 75 43 65 53
-20 3 -26 9 -71 12 -98 5 -42 10 -51 29 -56 45 -11 60 -2 63 40 5 64 -4 86
-37 86 -16 0 -33 6 -38 13 -12 16 -33 88 -33 115 0 19 4 21 49 15 61 -7 71 7
30 41 -44 37 -101 36 -140 -3z"/>
<path d="M3696 2375 c-39 -59 -47 -87 -19 -64 9 8 14 9 10 3 -4 -7 0 -15 9
-18 23 -9 24 -8 24 18 0 27 24 51 40 41 23 -14 32 -57 15 -75 -14 -15 -6 -21
100 -70 64 -29 119 -50 123 -45 4 4 -49 61 -117 126 -106 103 -126 118 -140
107 -13 -10 -14 -10 -3 2 14 16 16 30 3 30 -4 0 -25 -25 -45 -55z"/>
<path d="M4020 2188 c0 -6 7 -19 16 -29 14 -15 14 -22 0 -70 -9 -29 -16 -65
-16 -81 0 -16 -5 -28 -12 -28 -15 0 -166 27 -200 35 -19 5 -27 -2 -50 -45
l-28 -50 38 -23 c20 -13 56 -34 80 -46 l43 -22 -30 -35 c-17 -19 -31 -40 -31
-46 0 -7 13 -26 29 -43 24 -25 32 -47 45 -125 9 -52 22 -118 28 -147 8 -38 8
-109 -1 -270 -6 -120 -14 -235 -17 -255 l-6 -38 141 0 141 0 2 173 c2 94 2
193 2 218 -2 63 -29 141 -59 169 -24 22 -25 29 -25 137 l0 113 43 0 c23 0 60
5 82 11 107 29 101 87 -21 239 l-37 45 6 79 c8 91 0 112 -48 132 -42 17 -115
19 -115 2z"/>
<path d="M770 1383 c0 -5 9 -145 20 -313 10 -168 22 -362 26 -433 l7 -127 61
0 61 1 -36 19 -36 19 48 228 c26 125 52 254 59 286 6 32 13 57 15 55 3 -2 23
-125 45 -273 22 -149 43 -285 46 -302 l6 -33 67 1 66 0 -32 16 -33 17 0 423 0
423 -195 0 c-107 0 -195 -3 -195 -7z"/>
<path d="M1270 1147 c0 -64 3 -76 23 -95 21 -20 34 -22 130 -22 l107 0 0 95 0
95 -130 0 -130 0 0 -73z"/>
<path d="M2850 779 c105 -42 224 -75 359 -101 95 -18 150 -22 306 -22 165 0
329 13 388 30 14 4 17 17 17 65 l0 59 -572 -1 -573 0 75 -30z"/>
<path d="M4057 766 c-15 -43 -15 -47 -1 -42 9 3 20 6 25 6 11 0 11 37 0 65 -6
16 -11 11 -24 -29z"/>
<path d="M4190 790 c0 -24 13 -24 65 0 l40 19 -52 0 c-47 1 -53 -1 -53 -19z"/>
<path d="M2015 485 c59 -36 111 -65 116 -65 7 0 158 107 178 126 2 2 -87 4
-199 4 l-203 0 108 -65z"/>
<path d="M2243 337 c-34 -12 -64 -25 -67 -28 -5 -5 138 -59 157 -59 14 0 28
53 22 82 -8 34 -25 35 -112 5z"/>
<path d="M1918 329 c-22 -12 -24 -67 -5 -93 13 -17 17 -17 88 14 41 18 76 34
78 36 2 2 1 15 -3 29 -6 24 -10 25 -74 25 -37 0 -75 -5 -84 -11z"/>
<path d="M4215 230 c-10 -11 -32 -24 -49 -29 l-31 -9 36 -1 c19 -1 40 4 47 11
9 9 12 9 13 -2 0 -10 4 -7 9 5 20 46 6 59 -25 25z"/>
<path d="M3939 188 c-15 -11 -42 -24 -60 -28 l-34 -8 41 -1 c27 -1 46 5 55 15
12 14 14 14 20 -3 6 -13 8 -10 8 15 1 17 0 32 -1 31 -2 0 -15 -9 -29 -21z"/>
</g>
</svg>
